<?xml version="1.0" encoding="UTF-8"?><svg id="a" xmlns="http://www.w3.org/2000/svg" viewBox="0 0 820 1180"><defs><style>.b{fill:#7fe266;}</style></defs><polygon class="b" points="470.73 389.52 489.24 421.08 525.01 397.94 503.97 363.01 472.2 382.79 453.9 351.23 419.39 374.79 438.75 409.72 470.73 389.52"/><path class="b" d="M213.95,491.91s28.01-26.48,7.67,41.83c0,0,1.15,7.67,17.27-8.44s54.87-43.75,55.26-106.68c.38-62.93,11.13-92.1,11.13-92.1,0,0,23.41-4.99,22.64,18.8s-13.43,32.23-13.43,32.23c0,0,44.13-28.88,40.29-51.47-3.84-22.59-14.2-30.26-35.69-22.2l-31.47,29.55c-3.58,6.69-8.25,16.59-11.9,29.16-1.87,6.45-4.16,15.86-6.24,42.86-3.06,39.54-.58,50.35-7.92,69.83-3.46,9.18-7.55,16.15-10.26,20.37,4.53-18.39,3.14-32.3-3.02-35.02-1.37-.61-3.99-1.11-8.62,1.34-8.5,8.71-17,17.42-25.5,26.13l-.21,3.8Z"/><path class="b" d="M641.14,428.29c-16.05-21.2-35.45-31.04-44.58-34.98-3.95-.83-8.99-1.36-14.67-.56-8.15,1.14-15.79,4.77-22.35,9.81-5.59,4.05-18.46,14.84-21.26,32.07-.44,2.7-.48,5.09-.4,7.21,.99,26.6,27.04,49.27,56.99,45.14,.02,0,.37-.05,.37-.05,0,.01-6.27,.95-11.66,1.74-21.72,6.87-55.19,18.07-95.44,34.24-29.4,11.81-47.8,20.76-71.84,30.18,0,0-6.08-12.8-8.84-18.83-7.66-16.76-18.9-41.68-27-76.48-6.21-26.68-13.75-60.61-6.28-102.74,1.77-9.97,3.98-18.12,5.68-23.77-6.51,12.13-14.68,30.01-20.01,52.71-13.44,57.2,.59,104.63,9.48,133.37,0,0,5.85,18.9,19.15,45.86-1.24,.42-2.5,.84-3.79,1.27-35.01,11.64-52.99,17.46-76.49,17.67-23.83,.21-63.28,.56-86.34-26.9-21.63-25.75-22.07-67.9-22.07-72.22,0,0-.65-33.89,21.5-86.34,0,0,.05-.1,.05-.1-.21-.15-36.37,50-38.42,107.31-.52,14.66,1.04,26.12,3.18,35-11.42,18.7-29.44,53.76-30.8,95.68-.69,21.2,3.17,35.38,4.66,40.38,3.08,10.31,8.64,28.18,24.63,43.35,14.65,13.91,30.57,18.44,42.43,21.67,27.73,7.55,50.61,3.91,68.06,1.13,26.29-4.18,51.7-13.38,79.12-23.45,1.93-.71,3.81-1.4,5.66-2.09-5.19,9.55-18.76,34.5-14.81,61.49,3.53,24.1,19.54,39.73,24.46,44.41,31.13,29.57,80.9,29.91,115.69,14.46,8.75-3.89,21.3-10.9,33.9-23.85,0,0,10.52-25.54,15.03-35.31,1.02-5.29,1.92-13.14,.69-22.41-.98-7.33-3.33-15.84-10.51-28.81-8.3-14.98-16.75-24.56-23.98-32.97-7.19-8.36-14.1-16.95-20.99-25.57,7.16-2.54,14.83-5.03,23.5-7.56,21.75-6.34,55.09-14.47,98-18.39l6.4-13.28,7.83-16.25c-1.3-9.86-5.49-31.29-21.59-52.57-16.05-21.2-35.45-31.04-44.58-34.98-.15-.03-.3-.06-.45-.09,20.62-5.18,47.58-10.55,80.01-13.5l6.4-13.28,7.83-16.25c-1.3-9.86-5.49-31.29-21.59-52.57Zm-284.05,266.87c-66.66,21.42-92.4,18.77-104.09,16.91-18.32-2.92-42.84-6.83-58.73-26.14-21.04-25.56-22.1-72.22-22.07-72.22,0-.02-.5-27.06,15.16-70.17,.76,2.63,1.56,5.01,2.33,7.11,3.36,9.12,8.87,23.87,22.55,37,16.86,16.17,36.25,20.47,50.15,23.37,12.63,2.63,29.97,4.37,60.33-.57,36.14-5.88,62.26-17.22,78.55-23.24,9.32,16.24,20.86,33.91,34.87,51.39,1.44,1.8,6.33,9.23,14.24,19.15-37.18,18.01-69.49,29.78-93.29,37.43Zm145.43,24.14c16.9,22.73,34.37,50.71,36.62,71.75,0,0-23.29,36.81-105.18,15.03,0,0-72.14-18.58-52.04-91.26,42-15.67,65.79-26.67,87.22-35.83,.04,.04,.08,.09,.12,.13,10.59,10.77,21.55,24.47,33.24,40.19Zm53.45-99.96c-17.76,5.61-43.36,14.13-74.1,25.88-1-1.22-2-2.45-3.01-3.67-25.97-31.36-25.6-30.07-34.77-42.45-5.77-7.79-10.69-15.26-15-22.42,48.27-18.84,69.12-30.27,99.59-40.93-6.28,5.22-15.67,15.13-18.02,29.55-.44,2.7-.48,5.09-.4,7.21,.99,26.6,27.04,49.27,56.99,45.14,.02,0,.37-.05,.37-.05,0,.01-6.27,.95-11.66,1.74Zm37.91-27.92c-11.42-.62-42.46-3.89-60.71-27.48-2.08-2.69-4.11-5.79-5.94-9.35,1.84-.59,3.65-1,5.43-1.27,28.54-4.26,54.45,28.94,61.22,38.1Zm-33.09-158.16c-2.08-2.69-4.11-5.79-5.94-9.35,1.84-.59,3.65-1,5.43-1.27,28.54-4.26,54.45,28.94,61.22,38.1-11.42-.62-42.46-3.89-60.71-27.48Z"/></svg>